<svg width="24" height="25" viewBox="0 0 24 25" fill="none" xmlns="http://www.w3.org/2000/svg">
    <g clip-path="url(#clip0_132_215)">
        <path d="M9 19.2637C4 20.7637 4 16.7637 2 16.2637M16 22.2637V18.3937C16.0375 17.9169 15.9731 17.4375 15.811 16.9875C15.6489 16.5375 15.3929 16.1272 15.06 15.7837C18.2 15.4337 21.5 14.2437 21.5 8.78373C21.4997 7.38756 20.9627 6.04493 20 5.03373C20.4559 3.81224 20.4236 2.46208 19.91 1.26373C19.91 1.26373 18.73 0.913732 16 2.74373C13.708 2.12255 11.292 2.12255 9 2.74373C6.27 0.913732 5.09 1.26373 5.09 1.26373C4.57638 2.46208 4.54414 3.81224 5 5.03373C4.03013 6.05243 3.49252 7.40719 3.5 8.81373C3.5 14.2337 6.8 15.4237 9.94 15.8137C9.611 16.1537 9.35726 16.5591 9.19531 17.0037C9.03335 17.4482 8.96681 17.9218 9 18.3937V22.2637" stroke="currentColor" stroke-width="1.4" stroke-linecap="round" stroke-linejoin="round"/>
    </g>
    <defs>
        <clipPath id="clip0_132_215">
            <rect width="24" height="24" fill="white" transform="translate(0 0.263672)"/>
        </clipPath>
    </defs>
</svg>
