<svg xmlns="http://www.w3.org/2000/svg" width="24" height="25" viewBox="0 0 24 25" fill="none">
    <path d="M14.2745 10.3913L23.981 24.5174H16.8587L10.3181 14.9987L10.3107 14.988L10.3022 14.9978L2.11273 24.5174H0.0217945L9.37742 13.6429L9.39952 13.662L9.37808 13.6308L0.0190043 0.01H7.1413L13.3345 9.0234L13.3419 9.03411L13.3503 9.02426L21.1052 0.01H23.196L14.2787 10.3757H14.2637L14.2745 10.3913ZM2.88022 1.58389H2.86103L2.87202 1.59962L10.4257 12.4044L11.3715 13.7571H11.3711L11.3751 13.7628L17.8413 23.0117L17.8352 23.016H17.8495H21.1016H21.1208L21.1098 23.0003L13.1858 11.6659L12.2364 10.308L6.1405 1.58816L6.1466 1.58389H6.1323H2.88022" stroke-width="0.02"/>
</svg>
